<svg width="360" height="417" viewBox="0 0 360 417" fill="none" xmlns="http://www.w3.org/2000/svg">
<g opacity="0.15">
<path d="M304.544 281.696C324.835 281.696 341.308 265.194 341.308 244.961C341.308 224.727 324.793 208.225 304.544 208.225C284.296 208.225 267.781 224.727 267.781 244.961C267.781 265.194 284.296 281.696 304.544 281.696Z" fill="#30F000"/>
<path d="M103.467 55.9773C163.716 52.0799 198.238 118.046 166.164 166.183L207.159 211.335C235.956 176.963 250.686 120.824 234.13 80.5227C215.541 28.9028 163.467 -2.60819 104.505 0.169747H0.563736L-64 55.9773H103.467Z" fill="white"/>
<path d="M307.532 358.068C287.781 357.405 274.669 344.303 265.707 336.218C214.753 279.415 101.808 154.491 49.7336 96.9833H-31.0734L76.9118 213.491C37.2441 228.998 -27.1537 259.804 -42.2573 316.316C-59.1866 380.25 -11.4277 416.073 43.4266 416.239H207.284L156.579 360.39L43.3851 360.307C33.1777 358.193 23.0948 354.959 22.099 341.11C19.07 305.163 70.5633 270.128 115.874 256.86L227.491 380.292C257.782 414.125 279.275 415.99 311.764 416.239C366.328 417.856 422.925 376.187 425 320.67H364.088C356.577 342.893 333.175 358.483 307.532 358.027V358.068Z" fill="white"/>
</g>
</svg>
