<svg width="320" height="154" viewBox="0 0 320 154" fill="none" xmlns="http://www.w3.org/2000/svg">
<path d="M5.32454 58V3.59711H13.5814V26.9016H17.3626L39.4324 3.59711H49.6957L24.7707 30.2198L49.9272 58H39.2009L17.1311 33.6923H13.5814V58H5.32454ZM55.6225 58V3.59711H94.4376V10.6965H63.8794V27.2874H90.5792V34.2325H63.8794V50.9006H94.4376V58H55.6225ZM101.7 58V3.59711H140.515V10.6965H109.957V27.2874H136.657V34.2325H109.957V50.9006H140.515V58H101.7ZM147.778 58V3.59711H164.678C179.571 3.59711 187.674 8.07281 187.674 21.8857C187.674 35.7758 179.571 40.2515 164.678 40.2515H156.035V58H147.778ZM156.035 33.1522H164.987C173.629 33.1522 179.417 31.3001 179.417 21.8857C179.417 12.5485 173.629 10.6965 164.987 10.6965H156.035V33.1522ZM5.32454 135V80.5971H26.1597C38.8151 80.5971 47.998 83.3751 47.998 95.1817C47.998 103.747 42.9821 106.757 36.8088 107.837V109.998H42.7506C46.609 109.998 48.1523 112.313 48.1523 115.785V135H39.8955V114.011H13.5814V135H5.32454ZM13.5814 106.911H26.1597C34.5709 106.911 39.7411 105.599 39.7411 97.0337C39.7411 88.391 34.4166 87.6965 26.1597 87.6965H13.5814V106.911ZM54.9871 114.782V80.5971H63.244V112.39C63.244 123.039 66.0991 128.672 77.4427 128.672C88.7863 128.672 91.7958 122.962 91.7958 112.39V80.5971H100.053V114.782C100.053 128.441 92.7218 135.849 77.4427 135.849C62.2408 135.849 54.9871 128.441 54.9871 114.782ZM108.332 135V80.5971H124.846L148.459 132.762H150.697L149.231 127.283V80.5971H157.487V135H141.051L117.36 82.835H115.123L116.589 88.3138V135H108.332ZM166.467 135V80.5971H182.981L206.594 132.762H208.832L207.366 127.283V80.5971H215.623V135H199.186L175.496 82.835H173.258L174.724 88.3138V135H166.467ZM223.904 80.5971H256.546V87.6965H244.354V127.823H256.546V135H223.904V127.823H236.097V87.6965H223.904V80.5971ZM264.727 135V80.5971H281.241L304.854 132.762H307.092L305.626 127.283V80.5971H313.882V135H297.446L273.756 82.835H271.518L272.984 88.3138V135H264.727Z" fill="white"/>
<path d="M222.603 11.5552C230.735 11.0292 235.394 19.9325 231.065 26.4296L236.598 32.5237C240.485 27.8846 242.473 20.3075 240.238 14.8681C237.729 7.90099 230.701 3.64797 222.743 4.02291H208.714L200 11.5552H222.603Z" fill="white"/>
<path d="M250.145 52.3282C247.48 52.2386 245.71 50.4703 244.5 49.3791C237.623 41.7124 222.379 24.8515 215.351 17.0897H204.01L219.019 32.8147C213.665 34.9076 204.973 39.0655 202.935 46.6929C200.65 55.3221 207.096 60.1571 214.499 60.1795H236.615L229.771 52.6416L214.494 52.6304C213.116 52.345 211.755 51.9085 211.621 50.0394C211.212 45.1876 218.162 40.4589 224.277 38.6682L239.342 55.3277C243.431 59.8941 246.332 60.1459 250.717 60.1795C258.081 60.3977 265.72 54.7737 266 47.2805H257.779C256.765 50.28 253.606 52.3841 250.145 52.3226V52.3282Z" fill="white"/>
</svg>
