<svg width="18" height="18" viewBox="0 0 18 18" fill="none" xmlns="http://www.w3.org/2000/svg">
<path d="M1.48828 13.5044H15.9027C16.3032 13.5044 16.5303 12.9366 16.2944 12.6114C15.7483 11.8581 15.2179 10.7479 15.2179 9.40895L15.2414 7.57758C15.2414 3.94488 12.3105 1 8.695 1C5.13203 1 2.24367 3.90214 2.24367 7.4821L2.22019 9.40895C2.22019 10.7387 1.67077 11.843 1.10155 12.5959C0.856238 12.9204 1.08274 13.5044 1.48828 13.5044Z" fill="white"/>
<path d="M1.10155 12.5959L0.41953 12.0803H0.419529L1.10155 12.5959ZM2.22019 9.40895L1.36519 9.39853V9.40895H2.22019ZM2.24367 7.4821L3.09867 7.49252V7.4821H2.24367ZM16.2944 12.6114L16.9866 12.1095L16.9866 12.1095L16.2944 12.6114ZM15.2179 9.40895L14.3629 9.39798V9.40895H15.2179ZM15.2414 7.57758L16.0964 7.58854V7.57758H15.2414ZM1.78357 13.1115C2.42853 12.2584 3.07519 10.9774 3.07519 9.40895H1.36519C1.36519 10.5 0.913018 11.4275 0.41953 12.0803L1.78357 13.1115ZM3.07513 9.41936L3.0986 7.49251L1.38873 7.47168L1.36525 9.39853L3.07513 9.41936ZM16.9866 12.1095C16.5141 11.4577 16.0729 10.5195 16.0729 9.40895H14.3629C14.3629 10.9762 14.9826 12.2586 15.6022 13.1132L16.9866 12.1095ZM16.0728 9.41991L16.0963 7.58854L14.3864 7.56662L14.363 9.39798L16.0728 9.41991ZM16.0964 7.57758C16.0964 3.47652 12.7865 0.145 8.695 0.145V1.855C11.8344 1.855 14.3864 4.41325 14.3864 7.57758H16.0964ZM15.9027 14.3594C16.5522 14.3594 16.96 13.9014 17.1244 13.5134C17.2883 13.1265 17.3217 12.5717 16.9866 12.1095L15.6022 13.1132C15.503 12.9763 15.5407 12.868 15.5499 12.8463C15.5596 12.8234 15.6536 12.6494 15.9027 12.6494V14.3594ZM3.09867 7.4821C3.09867 4.3705 5.60806 1.855 8.695 1.855V0.145C4.65599 0.145 1.38867 3.43377 1.38867 7.4821H3.09867ZM1.48828 12.6494C1.60337 12.6494 1.69827 12.6937 1.75789 12.7416C1.81153 12.7847 1.83325 12.8263 1.84169 12.8468C1.85048 12.8682 1.85703 12.8958 1.85443 12.9336C1.85169 12.9733 1.83676 13.0412 1.78357 13.1115L0.419529 12.0803C0.0696223 12.5431 0.0998253 13.1069 0.260002 13.4967C0.420438 13.8872 0.827877 14.3594 1.48828 14.3594V12.6494ZM15.9027 12.6494H1.48828V14.3594H15.9027V12.6494ZM10.918 13.5044C10.918 14.5747 9.97554 15.535 8.695 15.535V17.245C10.8143 17.245 12.628 15.6214 12.628 13.5044H10.918ZM8.695 15.535C7.41446 15.535 6.472 14.5747 6.472 13.5044H4.762C4.762 15.6214 6.57567 17.245 8.695 17.245V15.535Z" fill="white"/>
</svg>
