<svg width="250" height="250" viewBox="0 0 250 250" fill="none" xmlns="http://www.w3.org/2000/svg">
<g id="Group 18">
<path id="Polygon 1" d="M97.5 15.8771C114.517 6.05233 135.483 6.05233 152.5 15.8771L205.753 46.6229C222.77 56.4477 233.253 74.6047 233.253 94.2543V155.746C233.253 175.395 222.77 193.552 205.753 203.377L152.5 234.123C135.483 243.948 114.517 243.948 97.5 234.123L44.2468 203.377C27.2298 193.552 16.7468 175.395 16.7468 155.746V94.2543C16.7468 74.6047 27.2298 56.4477 44.2468 46.6229L97.5 15.8771Z" fill="#6EFF2A"/>
<g id="Group">
<path id="Vector" d="M169.793 93.2067C166.854 90.2635 162.081 90.2653 159.137 93.2067L111.18 141.166L89.8649 119.851C86.9216 116.908 82.1507 116.908 79.2074 119.851C76.2642 122.795 76.2642 127.565 79.2074 130.509L105.85 157.151C107.321 158.622 109.249 159.359 111.178 159.359C113.107 159.359 115.037 158.624 116.508 157.151L169.793 103.864C172.736 100.923 172.736 96.1498 169.793 93.2067Z" fill="#1D1F1C"/>
</g>
</g>
</svg>
