<svg width="20" height="18" viewBox="0 0 20 18" fill="none" xmlns="http://www.w3.org/2000/svg">
<path d="M13.7738 16.9998L13.7741 14.0001C13.7742 12.3432 12.4252 10.9999 10.7609 10.9999H4.01352C2.34952 10.9999 1.00053 12.3428 1.00034 13.9995L1 16.9998M18.9997 17L19 14.0003C19.0001 12.3434 17.6511 11.0001 15.9868 11.0001M13.1934 1.58935C13.9334 2.13598 14.413 3.0123 14.413 4.00013C14.413 4.98797 13.9334 5.86429 13.1934 6.41092M10.4629 3.99997C10.4629 5.65681 9.11389 6.99994 7.44976 6.99994C5.78563 6.99994 4.43658 5.65681 4.43658 3.99997C4.43658 2.34313 5.78563 1 7.44976 1C9.11389 1 10.4629 2.34313 10.4629 3.99997Z"/>
</svg>
