<svg width="99" height="99" viewBox="0 0 99 99" fill="none" xmlns="http://www.w3.org/2000/svg">
<g clip-path="url(#clip0_37_1557)">
<path d="M20.3584 10.6072H10.6352V20.3304H20.3584V10.6072Z" fill="#A7FF91"/>
<path d="M68.9744 0.884003V5.7456H64.1128V10.6072H68.9744V30.0536H73.836V34.9152H68.9744V39.7768H78.6976V30.0536H93.2824V34.9152H98.144V0.884003H68.9744ZM93.2824 25.192H73.836V5.7456H93.2824V25.192Z" fill="#A7FF91"/>
<path d="M88.4208 10.6072H78.6976V20.3304H88.4208V10.6072Z" fill="#A7FF91"/>
<path d="M20.3584 78.6696H10.6352V88.3928H20.3584V78.6696Z" fill="#A7FF91"/>
<path d="M73.836 68.9464H68.9744V73.808H73.836V68.9464Z" fill="#A7FF91"/>
<path d="M49.528 93.2544H44.6664V98.116H49.528V93.2544Z" fill="#A7FF91"/>
<path d="M54.3896 73.808H49.528V78.6696H54.3896V73.808Z" fill="#A7FF91"/>
<path d="M54.3896 83.5312H49.528V88.3928H54.3896V83.5312Z" fill="#A7FF91"/>
<path d="M98.144 59.2232H93.2824V64.0848H98.144V59.2232Z" fill="#A7FF91"/>
<path d="M5.77359 59.2232H0.911987V64.0848H5.77359V59.2232Z" fill="#A7FF91"/>
<path d="M5.77359 34.9152H0.911987V39.7768H5.77359V34.9152Z" fill="#A7FF91"/>
<path d="M54.3896 5.7456V10.6072H44.6664V15.4688H59.2512V5.7456H54.3896Z" fill="#A7FF91"/>
<path d="M93.2824 39.7768V44.6384H83.5592V49.5H68.9744V44.6384H64.1128V49.5H54.3896V54.3616H68.9744V59.2232H54.3896V54.3616H49.528V59.2232H44.6664V54.3616H39.8048V59.2232H34.9432V64.0848H44.6664V68.9464H49.528V64.0848H59.2512V68.9464H54.3896L54.3896 73.808H59.2512V83.5312H64.1128V88.3928H68.9744V83.5312H83.5592V73.808H88.4208V68.9464H83.5592V59.2232H73.836V54.3616H83.5592V59.2232H88.4208V54.3616H93.2824V49.5H98.144V39.7768H93.2824ZM78.6976 64.0848V78.6696H64.1128V64.0848H78.6976Z" fill="#A7FF91"/>
<path d="M59.2512 30.0536V34.9152H54.3896V44.6384H59.2512V39.7768H64.1128V34.9152H68.9744V30.0536H59.2512Z" fill="#A7FF91"/>
<path d="M64.1128 93.2544H54.3896V98.116H64.1128V93.2544Z" fill="#A7FF91"/>
<path d="M44.6664 5.7456H39.8048V10.6072H44.6664L44.6664 5.7456Z" fill="#A7FF91"/>
<path d="M83.5592 39.7768L78.6976 39.7768L78.6976 44.6384H83.5592V39.7768Z" fill="#A7FF91"/>
<path d="M88.4208 34.9152H83.5592V39.7768L88.4208 39.7768V34.9152Z" fill="#A7FF91"/>
<path d="M25.22 59.2232H20.3584V64.0848H25.22V59.2232Z" fill="#A7FF91"/>
<path d="M30.0816 93.2544V73.808H34.9432L34.9432 64.0848H30.0816V68.9464H15.4968V64.0848H5.77359V68.9464H0.911987V98.116H39.8048V93.2544H30.0816ZM25.22 93.2544H5.77359V73.808H25.22V93.2544Z" fill="#A7FF91"/>
<path d="M34.9432 30.0536H30.0816V34.9152H34.9432V30.0536Z" fill="#A7FF91"/>
<path d="M0.911987 0.884003V30.0536H5.77359V34.9152L10.6352 34.9152V30.0536H15.4968V34.9152H20.3584V30.0536H30.0816L30.0816 20.3304H34.9432V15.4688H30.0816V5.7456L39.8048 5.7456L39.8048 0.884003H0.911987ZM25.22 25.192H5.77359V5.7456H25.22V25.192Z" fill="#A7FF91"/>
<path d="M64.1128 15.4688L59.2512 15.4688L59.2512 20.3304H64.1128V15.4688Z" fill="#A7FF91"/>
<path d="M54.3896 0.884003H49.528V5.7456L54.3896 5.7456L54.3896 0.884003Z" fill="#A7FF91"/>
<path d="M59.2512 30.0536L59.2512 25.192H54.3896V20.3304H49.528V25.192H39.8048V20.3304L34.9432 20.3304L34.9432 30.0536H39.8048V39.7768H25.22V34.9152L20.3584 34.9152V39.7768L5.77359 39.7768V44.6384H15.4968V49.5H0.911987V54.3616H15.4968V59.2232H20.3584L20.3584 54.3616H25.22L25.22 59.2232H30.0816V54.3616L39.8048 54.3616V49.5H34.9432V44.6384H44.6664V49.5L54.3896 49.5L54.3896 44.6384H49.528V39.7768H44.6664V30.0536H59.2512ZM30.0816 49.5H20.3584V44.6384H30.0816V49.5Z" fill="#A7FF91"/>
<path d="M44.6664 78.6696V68.9464L39.8048 68.9464V73.808L34.9432 73.808L34.9432 78.6696H39.8048V83.5312H34.9432V88.3928H44.6664V83.5312L49.528 83.5312V78.6696H44.6664Z" fill="#A7FF91"/>
<path d="M88.4208 88.3928V83.5312H83.5592L83.5592 88.3928H68.9744V93.2544H78.6976V98.116H83.5592V93.2544H93.2824V98.116H98.144V88.3928H88.4208Z" fill="#A7FF91"/>
<path d="M93.2824 68.9464V73.808L88.4208 73.808V78.6696H98.144V68.9464H93.2824Z" fill="#A7FF91"/>
</g>
<defs>
<clipPath id="clip0_37_1557">
<rect x="0.911987" y="0.884003" width="97.232" height="97.232" rx="1.888" fill="white"/>
</clipPath>
</defs>
</svg>
