<svg width="18" height="22" viewBox="0 0 18 22" fill="none" xmlns="http://www.w3.org/2000/svg">
<g id="Group 1707481390">
<g id="Group 1707481389">
<g id="Group 1707481388">
<path id="Vector" d="M9.00127 0C6.59567 0 4.33263 0.972423 2.63216 2.73653C0.934238 4.49809 0 6.84005 0 9.32966C0 14.3445 4.51846 18.4684 6.94697 20.6856C7.28044 20.9911 7.56555 21.2482 7.79211 21.4697C8.12049 21.7879 8.5507 21.9635 9.00127 21.9635C9.45185 21.9635 9.88205 21.7879 10.2104 21.4697C10.4319 21.2533 10.7119 20.9987 11.0327 20.706L11.053 20.6856C13.4815 18.4709 18 14.3445 18 9.32966C18 6.84005 17.0658 4.49809 15.3678 2.73653C13.6699 0.972423 11.4069 0 9.00127 0ZM9.89733 19.3466C9.58676 19.6292 9.31947 19.8736 9.09037 20.095L9.00127 20.179L8.91218 20.095C8.68307 19.8736 8.41578 19.6317 8.11031 19.3543C5.88036 17.3178 1.7412 13.5426 1.7412 9.32966C1.7412 5.11667 4.99958 1.78956 9.00127 1.78956C13.003 1.78956 16.2588 5.17268 16.2588 9.32966C16.2588 13.5426 12.1196 17.3178 9.89733 19.3492V19.3466Z" fill="white"/>
<path id="Vector_2" d="M9.00127 4.7272C6.73059 4.7272 4.88503 6.63896 4.88503 8.98855C4.88503 11.3382 6.73059 13.2499 9.00127 13.2499C11.272 13.2499 13.1175 11.3382 13.1175 8.98855C13.1175 6.63896 11.272 4.7272 9.00127 4.7272ZM9.00127 11.4578C7.69283 11.4578 6.62877 10.3479 6.62877 8.98601C6.62877 7.62411 7.69283 6.51422 9.00127 6.51422C10.3097 6.51422 11.3738 7.62411 11.3738 8.98601C11.3738 10.3479 10.3097 11.4578 9.00127 11.4578Z" fill="white"/>
</g>
</g>
</g>
</svg>
