<svg width="38" height="38" viewBox="0 0 38 38" fill="none" xmlns="http://www.w3.org/2000/svg">
<g id="Frame 1707481824">
<g id="Vector">
<path d="M12.6165 10.6307C16.436 10.3779 18.6245 14.6564 16.5912 17.7785L19.1901 20.7071C21.0156 18.4777 21.9494 14.8366 20.8999 12.2227C19.7214 8.87462 16.4202 6.83083 12.6823 7.01101H6.093L2 10.6307H12.6165Z" fill="white"/>
<path d="M25.5532 30.2241C24.3011 30.1811 23.4698 29.3313 22.9017 28.8069C19.6715 25.1227 12.5113 17.0202 9.21011 13.2903H3.88343L10.9331 20.8469C8.41834 21.8527 4.33586 23.8507 3.37838 27.5161C2.30515 31.6628 5.33281 33.9863 8.81028 33.9971H19.198L15.9835 30.3747L8.80765 30.3693C8.16055 30.2322 7.52135 30.0224 7.45822 29.1242C7.2662 26.7927 10.5306 24.5203 13.4031 23.6598L20.479 31.6655C22.3992 33.8599 23.7618 33.9809 25.8215 33.9971C29.2805 34.1019 32.8685 31.3993 33 27.7985H29.1385C28.6624 29.2399 27.1788 30.251 25.5532 30.2214V30.2241Z" fill="white"/>
</g>
<path id="Vector_2" d="M26.8711 23.9473C28.2404 23.9473 29.352 22.8374 29.352 21.4765C29.352 20.1155 28.2376 19.0056 26.8711 19.0056C25.5046 19.0056 24.3901 20.1155 24.3901 21.4765C24.3901 22.8374 25.5046 23.9473 26.8711 23.9473Z" fill="#30F000"/>
</g>
</svg>
