<svg width="18" height="20" viewBox="0 0 18 20" fill="none" xmlns="http://www.w3.org/2000/svg">
<g id="Group 1707481390">
<g id="Group 1707481389">
<g id="Group">
<path id="Vector" d="M8.99999 9.99948C11.7573 9.99948 13.9997 7.75702 13.9997 4.99974C13.9997 2.24246 11.7573 0 8.99999 0C6.24271 0 4.00024 2.24246 4.00024 4.99974C4.00024 7.75702 6.24271 9.99948 8.99999 9.99948ZM8.99999 1.73229C10.7972 1.73229 12.2674 3.19789 12.2674 4.99974C12.2674 6.8016 10.8018 8.26256 8.99999 8.26256C7.19813 8.26256 5.73253 6.79696 5.73253 4.9951C5.73253 3.19325 7.20045 1.73229 8.99999 1.73229Z" fill="white"/>
<path id="Vector_2" d="M13.7493 11.4841H4.25303C1.90853 11.4841 0 13.3927 0 15.7372V18.9095C0 19.3988 0.396547 19.7954 0.885854 19.7954H17.1141C17.6035 19.7954 18 19.3988 18 18.9095V15.7372C18 13.3927 16.0915 11.4841 13.747 11.4841H13.7493ZM16.2445 18.0237H1.75548V15.7372C1.75548 14.3713 2.88482 13.2582 4.25071 13.2582H13.747C15.1129 13.2582 16.2422 14.3713 16.2422 15.7372V18.0237H16.2445Z" fill="white"/>
</g>
</g>
</g>
</svg>
