<svg width="35" height="36" viewBox="0 0 35 36" fill="none" xmlns="http://www.w3.org/2000/svg">
<g id="noti">
<g id="Vector">
<path d="M24.2008 23.2949H10.7992V24.9872H24.2008V23.2949ZM23.5548 14.9783L23.9294 18.413L25.5482 18.2226L25.1736 14.7878L23.5548 14.9783ZM11.0706 18.413L11.4451 14.9783L9.82641 14.7878L9.45186 18.2226L11.0706 18.413ZM9.92704 21.169C10.562 20.3926 10.9595 19.4313 11.0706 18.413L9.45186 18.2226C9.37676 18.9112 9.10831 19.5563 8.68555 20.0732L9.92704 21.169ZM23.9294 18.413C24.0405 19.4313 24.438 20.3926 25.0729 21.169L26.3145 20.0732C25.8917 19.5563 25.6232 18.9112 25.5482 18.2226L23.9294 18.413ZM10.7992 23.2949C9.83612 23.2949 9.2235 22.0291 9.92704 21.169L8.68555 20.0732C7.14442 21.9576 8.3536 24.9872 10.7992 24.9872V23.2949ZM24.2008 24.9872C26.6464 24.9872 27.8556 21.9576 26.3145 20.0732L25.0729 21.169C25.7764 22.0291 25.1639 23.2949 24.2008 23.2949V24.9872ZM25.1736 14.7878C24.7227 10.653 21.4401 7.5 17.5 7.5V9.19231C20.5737 9.19231 23.193 11.6597 23.5548 14.9783L25.1736 14.7878ZM11.4451 14.9783C11.807 11.6597 14.4262 9.19231 17.5 9.19231V7.5C13.5599 7.5 10.2773 10.653 9.82641 14.7878L11.4451 14.9783Z" fill="white"/>
<path d="M21.5209 27.1944C21.6788 26.7568 21.4653 26.2691 21.044 26.1051C20.6227 25.9411 20.1533 26.1629 19.9954 26.6005L21.5209 27.1944ZM15.0046 26.6005C14.8467 26.1629 14.3772 25.9411 13.956 26.1051C13.5348 26.2691 13.3212 26.7568 13.4791 27.1944L15.0046 26.6005ZM19.9954 26.6005C19.6449 27.572 18.6779 28.3077 17.5 28.3077V30C19.3305 30 20.9228 28.8521 21.5209 27.1944L19.9954 26.6005ZM17.5 28.3077C16.3221 28.3077 15.355 27.572 15.0046 26.6005L13.4791 27.1944C14.0771 28.8521 15.6695 30 17.5 30V28.3077Z" fill="white"/>
</g>
<rect id="Rectangle 1371" x="25" y="4.5" width="5" height="5" rx="2.5" fill="#30F000"/>
</g>
</svg>
