<svg width="14" height="16" viewBox="0 0 14 16" fill="none" xmlns="http://www.w3.org/2000/svg">
<path d="M13.3 12.5L12.8 12.5L12.8 12.5L13.3 12.5ZM12.7998 15.1998C12.7997 15.4759 13.0236 15.6998 13.2997 15.6998C13.5759 15.6998 13.7997 15.476 13.7998 15.1998L12.7998 15.1998ZM0.200256 15.1997C0.200225 15.4759 0.424058 15.6998 0.7002 15.6998C0.976343 15.6998 1.20023 15.476 1.20026 15.1999L0.200256 15.1997ZM0.70056 12.4995L1.20056 12.4996L0.70056 12.4995ZM9.20026 3.4998C9.20026 4.71483 8.21528 5.6998 7.00026 5.6998V6.6998C8.76757 6.6998 10.2003 5.26712 10.2003 3.4998H9.20026ZM7.00026 5.6998C5.78523 5.6998 4.80026 4.71483 4.80026 3.4998H3.80026C3.80026 5.26712 5.23294 6.6998 7.00026 6.6998V5.6998ZM4.80026 3.4998C4.80026 2.28478 5.78523 1.2998 7.00026 1.2998V0.299805C5.23294 0.299805 3.80026 1.73249 3.80026 3.4998H4.80026ZM7.00026 1.2998C8.21528 1.2998 9.20026 2.28478 9.20026 3.4998H10.2003C10.2003 1.73249 8.76757 0.299805 7.00026 0.299805V1.2998ZM3.40056 10.2998H10.6V9.2998H3.40056V10.2998ZM12.8 12.5L12.7998 15.1998L13.7998 15.1998L13.8 12.5001L12.8 12.5ZM1.20026 15.1999L1.20056 12.4996L0.20056 12.4994L0.200256 15.1997L1.20026 15.1999ZM10.6 10.2998C11.8151 10.2998 12.8001 11.2849 12.8 12.5L13.8 12.5001C13.8002 10.7327 12.3674 9.2998 10.6 9.2998V10.2998ZM3.40056 9.2998C1.63339 9.2998 0.200759 10.7323 0.20056 12.4994L1.20056 12.4996C1.2007 11.2846 2.18563 10.2998 3.40056 10.2998V9.2998Z" fill="#9DA1AD"/>
</svg>
