<svg width="72" height="76" viewBox="0 0 72 76" fill="none" xmlns="http://www.w3.org/2000/svg">
<g id="Group 1707481391">
<path id="Polygon 1" d="M27.6719 3.70632C32.8247 0.764559 39.1753 0.764559 44.3281 3.70632L61.8954 13.7357C67.0463 16.6764 70.2108 22.105 70.2108 27.9706V48.0294C70.2108 53.895 67.0463 59.3236 61.8954 62.2643L44.3281 72.2937C39.1753 75.2354 32.8247 75.2354 27.6719 72.2937L10.1046 62.2643C4.95372 59.3236 1.78915 53.895 1.78915 48.0294V27.9706C1.78915 22.105 4.95372 16.6764 10.1046 13.7357L27.6719 3.70632Z" fill="#292929" stroke="#9B9B9B" stroke-width="3"/>
<g id="Group 1707481387">
<path id="Vector" d="M44.2766 46.3936C44.1668 46.511 44.0531 46.6247 43.9357 46.7344C43.8767 46.6793 43.8187 46.6231 43.7616 46.566V46.3936V46.2194H43.9357H44.1081C44.1652 46.2765 44.2214 46.3346 44.2766 46.3936Z" fill="white" stroke="#9B9B9B" stroke-width="17.9649"/>
</g>
</g>
</svg>
