<svg width="72" height="76" viewBox="0 0 72 76" fill="none" xmlns="http://www.w3.org/2000/svg">
<g id="Group 1707481391">
<path id="Polygon 1" d="M27.672 3.70632C32.8247 0.764559 39.1754 0.764559 44.3281 3.70632L61.8954 13.7357C67.0463 16.6764 70.2109 22.105 70.2109 27.9706V48.0294C70.2109 53.895 67.0463 59.3236 61.8954 62.2643L44.3281 72.2937C39.1754 75.2354 32.8247 75.2354 27.672 72.2937L10.1047 62.2643C4.95375 59.3236 1.78918 53.895 1.78918 48.0294V27.9706C1.78918 22.105 4.95375 16.6764 10.1047 13.7357L27.672 3.70632Z" fill="#21A300" stroke="#30F000" stroke-width="3"/>
<g id="Group 1707481387">
<path id="Vector" d="M29.8956 37.237H26.233C23.5397 37.237 21.3494 35.0467 21.3494 32.3534V28.6908C21.3494 25.9975 23.5397 23.8073 26.233 23.8073H29.8956C32.5889 23.8073 34.7791 25.9975 34.7791 28.6908V32.3534C34.7791 35.0467 32.5889 37.237 29.8956 37.237ZM26.233 27.4699C25.5603 27.4699 25.0121 28.0181 25.0121 28.6908V32.3534C25.0121 33.0261 25.5603 33.5743 26.233 33.5743H29.8956C30.5683 33.5743 31.1165 33.0261 31.1165 32.3534V28.6908C31.1165 28.0181 30.5683 27.4699 29.8956 27.4699H26.233ZM45.7671 37.237H42.1044C39.4112 37.237 37.2209 35.0467 37.2209 32.3534V28.6908C37.2209 25.9975 39.4112 23.8073 42.1044 23.8073H45.7671C48.4604 23.8073 50.6506 25.9975 50.6506 28.6908V32.3534C50.6506 35.0467 48.4604 37.237 45.7671 37.237ZM42.1044 27.4699C41.4305 27.4699 40.8836 28.0181 40.8836 28.6908V32.3534C40.8836 33.0261 41.4305 33.5743 42.1044 33.5743H45.7671C46.441 33.5743 46.988 33.0261 46.988 32.3534V28.6908C46.988 28.0181 46.441 27.4699 45.7671 27.4699H42.1044ZM29.8956 53.1085H26.233C23.5397 53.1085 21.3494 50.9182 21.3494 48.2249V44.5623C21.3494 41.869 23.5397 39.6787 26.233 39.6787H29.8956C32.5889 39.6787 34.7791 41.869 34.7791 44.5623V48.2249C34.7791 50.9182 32.5889 53.1085 29.8956 53.1085ZM26.233 43.3414C25.5603 43.3414 25.0121 43.8896 25.0121 44.5623V48.2249C25.0121 48.8976 25.5603 49.4458 26.233 49.4458H29.8956C30.5683 49.4458 31.1165 48.8976 31.1165 48.2249V44.5623C31.1165 43.8896 30.5683 43.3414 29.8956 43.3414H26.233ZM42.1044 42.7309V41.5101C42.1044 40.4992 41.284 39.6787 40.2731 39.6787H39.0522C38.0413 39.6787 37.2209 40.4992 37.2209 41.5101V42.7309C37.2209 43.7418 38.0413 44.5623 39.0522 44.5623H40.2731C41.284 44.5623 42.1044 43.7418 42.1044 42.7309ZM45.7671 46.3936C45.7671 45.3827 44.9467 44.5623 43.9358 44.5623C42.9249 44.5623 42.1044 45.3827 42.1044 46.3936C42.1044 47.4045 42.9249 48.2249 43.9358 48.2249C44.9467 48.2249 45.7671 47.4045 45.7671 46.3936ZM42.1044 51.2771V50.0562C42.1044 49.0454 41.284 48.2249 40.2731 48.2249H39.0522C38.0413 48.2249 37.2209 49.0454 37.2209 50.0562V51.2771C37.2209 52.288 38.0413 53.1085 39.0522 53.1085H40.2731C41.284 53.1085 42.1044 52.288 42.1044 51.2771ZM50.6506 42.7309V41.5101C50.6506 40.4992 49.8302 39.6787 48.8193 39.6787H47.5984C46.5875 39.6787 45.7671 40.4992 45.7671 41.5101V42.7309C45.7671 43.7418 46.5875 44.5623 47.5984 44.5623H48.8193C49.8302 44.5623 50.6506 43.7418 50.6506 42.7309Z" fill="white"/>
</g>
</g>
</svg>
