<svg width="360" height="800" viewBox="0 0 360 800" fill="none" xmlns="http://www.w3.org/2000/svg">
<g clip-path="url(#clip0_27_1646)">
<rect width="360" height="800" fill="#1D1F1C"/>
<path d="M163.646 502.876V504.406H148.922V502.876H155.33V499.6H150.578V491.212H152.414V493.948H160.118V491.212H161.954V499.6H157.184V502.876H163.646ZM152.414 498.106H160.118V495.442H152.414V498.106ZM180.024 495.28V496.81H177.864V502.336H175.992V490.132H177.864V495.28H180.024ZM171.834 496.9C172.176 495.154 172.212 493.876 172.23 492.868H165.876V491.356H174.048V492.292C174.048 493.39 174.066 494.992 173.652 497.098L171.834 496.9ZM175.128 499.258C171.762 499.834 167.91 499.942 165.084 499.942L164.886 498.43C165.894 498.43 166.974 498.448 168.126 498.394V495.064H169.962V498.34C171.69 498.268 173.4 498.178 175.002 497.908L175.128 499.258ZM169.206 504.568H178.386V506.08H167.334V501.256H169.206V504.568ZM194.585 490.114V506.422H192.713V490.114H194.585ZM187.205 494.146C187.205 497.152 188.861 500.122 191.417 501.274L190.337 502.75C188.465 501.868 187.043 500.122 186.305 497.872C185.567 500.266 184.127 502.156 182.165 503.11L181.067 501.562C183.659 500.41 185.351 497.26 185.351 494.146V491.482H187.205V494.146ZM212.35 494.884V496.414H210.028V501.904H208.174V490.132H210.028V494.884H212.35ZM205.672 491.374C205.672 495.676 202.81 498.736 198.076 500.176L197.302 498.7C201.118 497.548 203.314 495.496 203.656 492.886H197.986V491.374H205.672ZM201.604 504.568H210.676V506.08H199.732V500.716H201.604V504.568ZM155.276 525.358C155.276 528.526 154.124 532.144 150.416 532.144C146.708 532.144 145.574 528.526 145.574 525.358C145.574 522.19 146.708 518.554 150.416 518.554C154.178 518.554 155.276 522.298 155.276 525.358ZM153.224 525.358C153.224 523.504 152.9 520.228 150.416 520.228C147.932 520.228 147.608 523.504 147.608 525.358C147.608 527.212 147.95 530.488 150.416 530.488C152.9 530.488 153.224 527.212 153.224 525.358ZM165.585 525.358C165.585 528.526 164.433 532.144 160.725 532.144C157.017 532.144 155.883 528.526 155.883 525.358C155.883 522.19 157.017 518.554 160.725 518.554C164.487 518.554 165.585 522.298 165.585 525.358ZM163.533 525.358C163.533 523.504 163.209 520.228 160.725 520.228C158.241 520.228 157.917 523.504 157.917 525.358C157.917 527.212 158.259 530.488 160.725 530.488C163.209 530.488 163.533 527.212 163.533 525.358ZM169.107 523.558H166.983V521.326H169.107V523.558ZM169.107 530.974H166.983V528.742H169.107V530.974ZM180.19 525.358C180.19 528.526 179.038 532.144 175.33 532.144C171.622 532.144 170.488 528.526 170.488 525.358C170.488 522.19 171.622 518.554 175.33 518.554C179.092 518.554 180.19 522.298 180.19 525.358ZM178.138 525.358C178.138 523.504 177.814 520.228 175.33 520.228C172.846 520.228 172.522 523.504 172.522 525.358C172.522 527.212 172.864 530.488 175.33 530.488C177.814 530.488 178.138 527.212 178.138 525.358ZM190.499 525.358C190.499 528.526 189.347 532.144 185.639 532.144C181.931 532.144 180.797 528.526 180.797 525.358C180.797 522.19 181.931 518.554 185.639 518.554C189.401 518.554 190.499 522.298 190.499 525.358ZM188.447 525.358C188.447 523.504 188.123 520.228 185.639 520.228C183.155 520.228 182.831 523.504 182.831 525.358C182.831 527.212 183.173 530.488 185.639 530.488C188.123 530.488 188.447 527.212 188.447 525.358ZM194.022 523.558H191.898V521.326H194.022V523.558ZM194.022 530.974H191.898V528.742H194.022V530.974ZM205.105 525.358C205.105 528.526 203.953 532.144 200.245 532.144C196.537 532.144 195.403 528.526 195.403 525.358C195.403 522.19 196.537 518.554 200.245 518.554C204.007 518.554 205.105 522.298 205.105 525.358ZM203.053 525.358C203.053 523.504 202.729 520.228 200.245 520.228C197.761 520.228 197.437 523.504 197.437 525.358C197.437 527.212 197.779 530.488 200.245 530.488C202.729 530.488 203.053 527.212 203.053 525.358ZM208.051 523.072L206.953 521.74L210.553 518.662H212.173V530.272H214.675V532H207.421V530.272H210.193V522.154C210.193 521.866 210.193 521.56 210.211 521.254L208.051 523.072Z" fill="white"/>
<path d="M116.51 552.056L115.656 551.02L118.456 548.626H119.716V557.656H121.662V559H116.02V557.656H118.176V551.342C118.176 551.118 118.176 550.88 118.19 550.642L116.51 552.056ZM123.128 557.222H124.78L123.884 560.134H122.596L123.128 557.222ZM132.66 559H125.66V558.104L129.146 554.604C129.622 554.128 130.07 553.652 130.434 553.078C131.134 551.818 131.218 549.858 129.23 549.858C128.124 549.858 127.298 550.67 127.382 551.776L125.842 551.496C126.108 549.648 127.396 548.542 129.314 548.542C131.05 548.542 132.478 549.578 132.478 551.454C132.478 553.022 131.4 554.128 130.364 555.164L127.732 557.824C128.166 557.712 128.628 557.628 129.076 557.628H132.66V559ZM140.957 553.834C140.957 556.298 140.061 559.112 137.177 559.112C134.293 559.112 133.411 556.298 133.411 553.834C133.411 551.37 134.293 548.542 137.177 548.542C140.103 548.542 140.957 551.454 140.957 553.834ZM139.361 553.834C139.361 552.392 139.109 549.844 137.177 549.844C135.245 549.844 134.993 552.392 134.993 553.834C134.993 555.276 135.259 557.824 137.177 557.824C139.109 557.824 139.361 555.276 139.361 553.834ZM148.975 553.834C148.975 556.298 148.079 559.112 145.195 559.112C142.311 559.112 141.429 556.298 141.429 553.834C141.429 551.37 142.311 548.542 145.195 548.542C148.121 548.542 148.975 551.454 148.975 553.834ZM147.379 553.834C147.379 552.392 147.127 549.844 145.195 549.844C143.263 549.844 143.011 552.392 143.011 553.834C143.011 555.276 143.277 557.824 145.195 557.824C147.127 557.824 147.379 555.276 147.379 553.834ZM158.799 554.856V547.422H160.241V557.04H158.799V555.864H156.321V554.856H158.799ZM153.801 552.364C151.953 552.364 150.665 551.482 150.665 550.138C150.665 548.794 151.953 547.912 153.801 547.912C155.649 547.912 156.923 548.794 156.923 550.138C156.923 551.482 155.649 552.364 153.801 552.364ZM153.801 548.976C152.737 548.976 152.037 549.424 152.037 550.138C152.037 550.852 152.737 551.3 153.801 551.3C154.865 551.3 155.551 550.852 155.551 550.138C155.551 549.424 154.865 548.976 153.801 548.976ZM153.227 554.282C151.995 554.338 150.889 554.352 149.881 554.352L149.699 553.176C152.023 553.176 155.117 553.134 157.805 552.798L157.917 553.834C156.853 554.016 155.747 554.142 154.669 554.198V556.634H153.227V554.282ZM160.535 558.664V559.84H151.407V556.102H152.849V558.664H160.535ZM165.793 553.078C168.243 552.784 169.993 551.454 170.105 550.096H166.213V548.934H170.119V547.436H171.561V548.934H175.481V550.096H171.575C171.687 551.454 173.437 552.784 175.887 553.078L175.369 554.212C173.283 553.946 171.673 553.036 170.833 551.748C169.993 553.036 168.383 553.932 166.297 554.212L165.793 553.078ZM176.559 556.228H171.561V560.106H170.119V556.228H165.135V555.038H176.559V556.228ZM189.396 553.624H187.478V560.064H186.036V547.422H187.478V552.42H189.396V553.624ZM184.174 548.766C184.174 552.434 182.606 555.682 178.476 557.768L177.678 556.662C180.744 555.08 182.438 552.84 182.732 549.942H178.308V548.766H184.174ZM199.162 550.278C198.378 552.252 196.586 553.498 193.73 554.128L193.226 552.952C196.236 552.294 197.762 550.936 197.972 549.158H193.912V547.996H199.568C199.568 548.444 199.54 548.836 199.47 549.158H202.088V547.436H203.53V553.848H202.088V552.7H198.994V551.58H202.088V550.278H199.162ZM203.88 558.804V559.966H195.326V556.564H202.088V555.514H195.298V554.366H203.53V557.642H196.768V558.804H203.88ZM216.394 547.422V560.064H215.022V547.422H216.394ZM212.474 547.674H213.832V559.462H212.474V553.05H210.612V551.874H212.474V547.674ZM209.45 550.908C209.45 553.036 210.248 555.262 212.026 556.27L211.186 557.32C209.996 556.606 209.212 555.374 208.764 553.904C208.316 555.542 207.518 556.844 206.286 557.628L205.418 556.564C207.21 555.444 208.05 553.162 208.05 550.908V549.998H205.824V548.808H211.536V549.998H209.45V550.908ZM231.774 547.436V560.064H230.402V547.436H231.774ZM227.896 547.674H229.24V559.476H227.896V555.43H226.16C225.712 556.662 224.886 557.39 223.822 557.39C222.198 557.39 221.106 555.682 221.106 552.91C221.106 550.11 222.198 548.416 223.822 548.416C224.886 548.416 225.712 549.116 226.146 550.362H227.896V547.674ZM223.822 556.032C224.718 556.032 225.236 554.94 225.236 552.91C225.236 550.88 224.718 549.774 223.822 549.774C222.926 549.774 222.408 550.88 222.408 552.91C222.408 554.94 222.926 556.032 223.822 556.032ZM227.896 554.254V551.552H226.44C226.51 551.986 226.538 552.42 226.538 552.91C226.538 553.4 226.51 553.82 226.44 554.254H227.896ZM242.567 550.614V547.436H244.009V554.968H242.567V551.79H240.327V550.614H242.567ZM240.341 554.562C238.941 554.072 237.947 553.092 237.401 551.86C236.841 553.26 235.791 554.352 234.279 554.898L233.537 553.75C235.497 553.05 236.631 551.37 236.631 549.634V549.452H233.957V548.29H240.719V549.452H238.087V549.62C238.087 551.23 239.151 552.756 241.055 553.428L240.341 554.562ZM239.809 555.304C242.441 555.304 244.065 556.186 244.065 557.698C244.065 559.21 242.441 560.092 239.809 560.092C237.163 560.092 235.539 559.21 235.539 557.698C235.539 556.186 237.163 555.304 239.809 555.304ZM239.809 558.972C241.615 558.972 242.623 558.538 242.623 557.698C242.623 556.858 241.615 556.424 239.809 556.424C238.003 556.424 236.981 556.858 236.981 557.698C236.981 558.538 238.003 558.972 239.809 558.972Z" fill="#757575"/>
<path d="M32.6165 66.6307C36.436 66.3779 38.6245 70.6564 36.5912 73.7785L39.1901 76.7071C41.0156 74.4777 41.9494 70.8366 40.8999 68.2227C39.7214 64.8746 36.4202 62.8308 32.6823 63.011H26.093L22 66.6307H32.6165Z" fill="white"/>
<path d="M45.5532 86.2241C44.3011 86.1811 43.4698 85.3313 42.9017 84.8069C39.6715 81.1227 32.5113 73.0202 29.2101 69.2903H23.8834L30.9331 76.8469C28.4183 77.8527 24.3359 79.8507 23.3784 83.5161C22.3051 87.6628 25.3328 89.9863 28.8103 89.997H39.198L35.9835 86.3747L28.8076 86.3693C28.1606 86.2322 27.5214 86.0224 27.4582 85.1242C27.2662 82.7927 30.5306 80.5203 33.4031 79.6598L40.479 87.6655C42.3992 89.8599 43.7618 89.9809 45.8215 89.997C49.2805 90.1019 52.8685 87.3993 53 83.7985H49.1385C48.6624 85.2399 47.1788 86.251 45.5532 86.2214V86.2241Z" fill="white"/>
<path d="M46.8711 79.9473C48.2404 79.9473 49.352 78.8374 49.352 77.4765C49.352 76.1155 48.2376 75.0056 46.8711 75.0056C45.5046 75.0056 44.3901 76.1155 44.3901 77.4765C44.3901 78.8374 45.5046 79.9473 46.8711 79.9473Z" fill="#30F000"/>
<path d="M331.201 80.2949H317.799V81.9872H331.201V80.2949ZM330.555 71.9783L330.929 75.413L332.548 75.2226L332.174 71.7878L330.555 71.9783ZM318.071 75.413L318.445 71.9783L316.826 71.7878L316.452 75.2226L318.071 75.413ZM316.927 78.169C317.562 77.3926 317.96 76.4313 318.071 75.413L316.452 75.2226C316.377 75.9112 316.108 76.5563 315.686 77.0732L316.927 78.169ZM330.929 75.413C331.041 76.4313 331.438 77.3926 332.073 78.169L333.314 77.0732C332.892 76.5563 332.623 75.9112 332.548 75.2226L330.929 75.413ZM317.799 80.2949C316.836 80.2949 316.223 79.0291 316.927 78.169L315.686 77.0732C314.144 78.9576 315.354 81.9872 317.799 81.9872V80.2949ZM331.201 81.9872C333.646 81.9872 334.856 78.9576 333.314 77.0732L332.073 78.169C332.776 79.0291 332.164 80.2949 331.201 80.2949V81.9872ZM332.174 71.7878C331.723 67.653 328.44 64.5 324.5 64.5V66.1923C327.574 66.1923 330.193 68.6597 330.555 71.9783L332.174 71.7878ZM318.445 71.9783C318.807 68.6597 321.426 66.1923 324.5 66.1923V64.5C320.56 64.5 317.277 67.653 316.826 71.7878L318.445 71.9783Z" fill="white"/>
<path d="M328.521 84.1944C328.679 83.7568 328.465 83.2691 328.044 83.1051C327.623 82.9411 327.153 83.1629 326.995 83.6005L328.521 84.1944ZM322.005 83.6005C321.847 83.1629 321.377 82.9411 320.956 83.1051C320.535 83.2691 320.321 83.7568 320.479 84.1944L322.005 83.6005ZM326.995 83.6005C326.645 84.572 325.678 85.3077 324.5 85.3077V87C326.331 87 327.923 85.8521 328.521 84.1944L326.995 83.6005ZM324.5 85.3077C323.322 85.3077 322.355 84.572 322.005 83.6005L320.479 84.1944C321.077 85.8521 322.669 87 324.5 87V85.3077Z" fill="white"/>
<rect x="332" y="61.5" width="5" height="5" rx="2.5" fill="#30F000"/>
<rect width="360" height="40" fill="#333333"/>
<circle cx="272" cy="458" r="11" fill="#404040"/>
<path d="M271.023 460.704C271.044 458.76 271.573 458.166 272.482 457.557C273.06 457.179 273.5 456.63 273.5 455.85C273.5 454.922 272.839 454.336 272.014 454.336C271.271 454.336 270.548 454.826 270.486 455.924H269C269.055 454.032 270.376 453 272.014 453C273.803 453 275 454.158 275 455.85C275 457.045 274.47 457.839 273.596 458.418C272.771 458.96 272.447 459.495 272.427 460.704V460.794H271.023V460.704ZM270.803 462.946C270.796 462.367 271.243 461.892 271.78 461.892C272.31 461.892 272.75 462.367 272.757 462.946C272.75 463.525 272.31 463.993 271.78 464C271.243 463.993 270.796 463.525 270.803 462.946Z" fill="white"/>
<path d="M102.6 150.616H90.5763V148.648H95.4483V146.128H97.9203V148.648H102.6V150.616ZM106.008 158.368H102.696V156.376H106.008V153.784H102.696V151.768H106.008V146.176H108.48V162.712H106.008V158.368ZM101.664 155.824C101.664 158.32 99.6483 160.024 96.6723 160.024C93.7203 160.024 91.7043 158.32 91.7043 155.824C91.7043 153.304 93.7203 151.624 96.6723 151.624C99.6483 151.624 101.664 153.304 101.664 155.824ZM94.0323 155.824C94.0323 157.264 95.1123 158.08 96.6723 158.08C98.3043 158.08 99.3363 157.264 99.3363 155.824C99.3363 154.384 98.3043 153.544 96.6723 153.544C95.1123 153.544 94.0323 154.384 94.0323 155.824ZM108.984 165.424V167.44H94.3683V161.32H96.8643V165.424H108.984ZM130.654 146.152V167.848H128.302V156.76H125.926V166.84H123.598V146.56H125.926V154.72H128.302V146.152H130.654ZM118.654 151.792C118.654 155.728 120.022 159.232 123.166 160.888L121.726 162.784C119.614 161.656 118.318 159.688 117.526 157.288C116.782 160.096 115.39 162.256 113.254 163.528L111.742 161.68C114.886 159.832 116.254 156.088 116.254 151.792V150.592H112.342V148.552H122.278V150.592H118.654V151.792ZM156.228 146.176V167.848H153.732V146.176H156.228ZM146.388 152.44C146.388 156.064 148.62 159.76 152.004 161.224L150.636 163.168C148.116 162.04 146.196 159.712 145.164 156.904C144.204 159.904 142.26 162.52 139.716 163.72L138.3 161.752C141.66 160.24 143.892 156.112 143.892 152.44V150.376H139.068V148.336H151.212V150.376H146.388V152.44ZM179.482 158.296V160.288H159.874V158.296H168.442V156.352H162.394V146.92H177.154V148.816H164.866V150.688H176.626V152.536H164.866V154.432H177.298V156.352H170.938V158.296H179.482ZM164.818 165.424H177.49V167.44H162.346V161.608H164.818V165.424ZM199.304 146.176V158.392H196.808V146.176H199.304ZM195.032 156.04C191.576 156.736 188.36 157.024 184.544 157.024H182.744V147.424H185.216V154.96C188.648 154.936 191.576 154.696 194.744 154.048L195.032 156.04ZM185.096 159.376H199.304V167.584H185.096V159.376ZM187.544 165.592H196.88V161.344H187.544V165.592ZM220.806 146.152V167.872H218.31V146.152H220.806ZM209.958 147.688C213.342 147.688 215.862 149.824 215.862 152.896C215.862 155.968 213.342 158.104 209.958 158.104C206.574 158.104 204.078 155.968 204.078 152.896C204.078 149.824 206.574 147.688 209.958 147.688ZM209.958 149.8C207.942 149.8 206.502 150.976 206.502 152.896C206.502 154.768 207.966 155.992 209.958 155.992C211.974 155.992 213.438 154.768 213.438 152.896C213.438 151 211.974 149.8 209.958 149.8ZM203.07 161.248C206.982 161.248 212.334 161.224 217.014 160.528L217.182 162.328C212.382 163.216 207.246 163.288 203.382 163.288L203.07 161.248ZM247.171 146.176V158.728H244.699V146.176H247.171ZM241.435 158.152C238.939 157.312 237.139 155.68 236.155 153.568C235.195 155.872 233.371 157.672 230.779 158.536L229.483 156.592C232.915 155.512 234.859 152.68 234.859 149.824V149.56H230.155V147.568H242.011V149.56H237.379V149.824C237.379 152.512 239.371 155.104 242.659 156.208L241.435 158.152ZM232.987 159.808H247.171V167.584H232.987V159.808ZM235.411 165.616H244.747V161.776H235.411V165.616ZM260.634 153.976C255.642 153.976 252.906 152.656 252.906 150.256C252.906 147.832 255.642 146.512 260.634 146.512C265.602 146.512 268.362 147.832 268.362 150.256C268.362 152.656 265.602 153.976 260.634 153.976ZM260.634 148.36C257.25 148.36 255.474 149.008 255.474 150.256C255.474 151.48 257.25 152.128 260.634 152.128C264.018 152.128 265.794 151.48 265.794 150.256C265.794 149.008 264.018 148.36 260.634 148.36ZM270.45 155.248V157.216H250.818V155.248H270.45ZM255.642 165.76H268.602V167.656H253.194V162.208H265.554V160.648H253.146V158.776H267.978V163.96H255.642V165.76ZM136.502 197.168V199.208H116.87V197.168H125.414V192.8H119.078V181.616H121.526V185.264H131.798V181.616H134.246V192.8H127.886V197.168H136.502ZM121.526 190.808H131.798V187.256H121.526V190.808ZM158.34 187.04V189.08H155.46V196.448H152.964V180.176H155.46V187.04H158.34ZM147.42 189.2C147.876 186.872 147.924 185.168 147.948 183.824H139.476V181.808H150.372V183.056C150.372 184.52 150.396 186.656 149.844 189.464L147.42 189.2ZM151.812 192.344C147.324 193.112 142.188 193.256 138.42 193.256L138.156 191.24C139.5 191.24 140.94 191.264 142.476 191.192V186.752H144.924V191.12C147.228 191.024 149.508 190.904 151.644 190.544L151.812 192.344ZM143.916 199.424H156.156V201.44H141.42V195.008H143.916V199.424ZM160.882 187.136C164.89 186.752 167.698 185 168.01 183.104H161.722V181.112H177.73V183.104H171.394C171.706 185 174.514 186.752 178.522 187.136L177.658 189.08C173.866 188.696 170.866 187.064 169.714 184.88C168.538 187.112 165.634 188.672 161.77 189.08L160.882 187.136ZM170.938 192.152V194.168C174.97 194.432 177.13 195.704 177.13 198.008C177.13 200.504 174.466 201.848 169.666 201.848C164.89 201.848 162.202 200.504 162.202 198.008C162.202 195.704 164.41 194.408 168.466 194.144V192.152H159.898V190.184H179.506V192.152H170.938ZM174.634 198.008C174.634 196.664 172.858 196.04 169.666 196.04C166.474 196.04 164.722 196.664 164.722 198.008C164.722 199.256 166.474 199.952 169.666 199.952C172.858 199.952 174.634 199.256 174.634 198.008ZM199.304 180.176V191.816H196.832V180.176H199.304ZM187.616 181.16C190.928 181.16 193.352 183.224 193.352 186.2C193.352 189.176 190.928 191.24 187.616 191.24C184.28 191.24 181.856 189.176 181.856 186.2C181.856 183.224 184.28 181.16 187.616 181.16ZM187.616 183.2C185.6 183.2 184.28 184.376 184.28 186.2C184.28 188.024 185.6 189.2 187.616 189.2C189.56 189.2 190.952 188.024 190.952 186.2C190.952 184.376 189.56 183.2 187.616 183.2ZM187.592 192.824V195.224H196.856V192.824H199.304V201.584H185.144V192.824H187.592ZM187.592 199.592H196.856V197.144H187.592V199.592ZM220.878 180.176V201.848H218.406V180.176H220.878ZM206.694 194.264C209.79 194.24 212.934 193.976 216.414 193.28L216.678 195.344C212.91 196.112 209.478 196.376 206.094 196.376H204.246V182.288H206.694V194.264ZM244.66 190.544H241.276V201.872H238.804V180.152H241.276V188.504H244.66V190.544ZM227.836 194.48C231.292 194.48 234.004 194.288 237.004 193.784L237.268 195.824C234.004 196.4 231.052 196.544 227.14 196.544H225.364V182.216H235.444V184.232H227.836V194.48Z" fill="white"/>
<g filter="url(#filter0_d_27_1646)">
<rect x="121" y="586" width="118" height="52" rx="10" fill="#6EFF2A" shape-rendering="crispEdges"/>
<path d="M164.091 619.376H161.979V604.64H164.091V619.376ZM152.171 607.92V606.272H155.547V604.688H157.659V606.272H161.019V607.92H152.171ZM157.659 615.104C158.875 615.04 160.059 614.976 161.211 614.8L161.371 616.32C158.155 616.912 154.731 616.928 152.139 616.928L151.883 615.216C152.987 615.216 154.203 615.232 155.547 615.184V613.936C153.947 613.632 152.939 612.64 152.939 611.28C152.939 609.616 154.443 608.496 156.603 608.496C158.731 608.496 160.251 609.616 160.251 611.28C160.251 612.64 159.259 613.632 157.659 613.936V615.104ZM154.955 611.28C154.955 612.032 155.627 612.448 156.603 612.448C157.627 612.448 158.251 612.032 158.251 611.28C158.251 610.512 157.627 610.096 156.603 610.096C155.627 610.096 154.955 610.512 154.955 611.28ZM178.201 611.568C175.625 611.184 173.801 610 172.841 608.4C171.881 610 170.041 611.184 167.465 611.568L166.665 609.872C170.041 609.408 171.705 607.504 171.705 605.776V605.072H173.961V605.776C173.961 607.504 175.673 609.408 179.001 609.872L178.201 611.568ZM173.833 614.368V619.392H171.721V614.368H166.169V612.656H179.481V614.368H173.833ZM192.072 612.144V619.376H189.96V604.64H192.072V610.4H194.184V612.144H192.072ZM189 606.816V608.496H180.424V606.816H183.688V604.896H185.8V606.816H189ZM184.76 609.328C186.888 609.328 188.472 610.784 188.472 612.832C188.472 614.928 186.888 616.368 184.76 616.368C182.616 616.368 181.016 614.928 181.016 612.832C181.016 610.784 182.616 609.328 184.76 609.328ZM184.76 614.64C185.784 614.64 186.472 613.984 186.472 612.832C186.472 611.728 185.784 611.04 184.76 611.04C183.736 611.04 183.032 611.696 183.032 612.848C183.032 614 183.736 614.64 184.76 614.64ZM207.127 619.36H204.999V604.624H207.127V619.36ZM202.743 606.16C202.743 610.656 201.223 614.368 195.991 616.88L194.887 615.216C198.647 613.424 200.279 611.104 200.583 607.84H195.671V606.16H202.743Z" fill="#1C1E1F"/>
</g>
<path d="M0 715C0 703.954 8.95431 695 20 695H340C351.046 695 360 703.954 360 715V800H0V715Z" fill="#292929"/>
<path d="M53.2083 764.348V765.538H41.7563V764.348H46.7403V761.8H43.0443V755.276H44.4723V757.404H50.4643V755.276H51.8923V761.8H48.1823V764.348H53.2083ZM44.4723 760.638H50.4643V758.566H44.4723V760.638ZM65.9472 758.44V759.63H64.2672V763.928H62.8112V754.436H64.2672V758.44H65.9472ZM59.5772 759.7C59.8432 758.342 59.8712 757.348 59.8852 756.564H54.9432V755.388H61.2992V756.116C61.2992 756.97 61.3132 758.216 60.9912 759.854L59.5772 759.7ZM62.1392 761.534C59.5212 761.982 56.5252 762.066 54.3272 762.066L54.1732 760.89C54.9572 760.89 55.7972 760.904 56.6932 760.862V758.272H58.1212V760.82C59.4652 760.764 60.7952 760.694 62.0412 760.484L62.1392 761.534ZM57.5332 765.664H64.6732V766.84H56.0772V763.088H57.5332V765.664ZM74.3461 756.83H66.8841V755.682H69.8941V754.338H71.3361V755.682H74.3461V756.83ZM78.5321 758.874H76.7401V762.052H75.2981V754.436H76.7401V757.684H78.5321V758.874ZM73.6741 759.616C73.6741 761.002 72.4421 761.884 70.6081 761.884C68.7881 761.884 67.5421 761.002 67.5421 759.616C67.5421 758.258 68.7881 757.348 70.6081 757.348C72.4421 757.348 73.6741 758.258 73.6741 759.616ZM68.9281 759.616C68.9281 760.358 69.6001 760.806 70.6081 760.806C71.6161 760.806 72.3021 760.358 72.3021 759.616C72.3021 758.888 71.6161 758.44 70.6081 758.44C69.6001 758.44 68.9281 758.888 68.9281 759.616ZM68.6621 762.696H76.7401V766.924H68.6621V762.696ZM70.0901 765.776H75.3261V763.83H70.0901V765.776ZM89.0399 761.422C87.5839 761.016 86.5479 760.19 86.0019 759.07C85.4279 760.302 84.3779 761.212 82.8659 761.646L82.1939 760.526C84.1399 759.966 85.2459 758.566 85.2459 757.04V756.942H82.5859V755.794H85.2459V754.38H86.7019V755.794H89.3479V756.942H86.6879V757.04C86.6879 758.44 87.7939 759.784 89.6979 760.302L89.0399 761.422ZM93.8979 757.432V758.622H92.1059V761.716H90.6639V754.436H92.1059V757.432H93.8979ZM88.9139 763.48C89.1799 764.6 90.6779 765.664 92.8059 765.958L92.2739 767.05C90.3559 766.77 88.8439 765.902 88.1299 764.726C87.4019 765.902 85.9319 766.742 83.9579 767.036L83.4119 765.93C85.5679 765.636 87.0519 764.628 87.3179 763.48H83.9439V762.332H92.2879V763.48H88.9139ZM105.223 754.436V767.078H103.781V754.436H105.223ZM101.499 755.766C101.499 759.532 99.9868 762.724 95.6468 764.824L94.8768 763.676C98.1948 762.066 99.7768 759.854 100.015 756.942H95.5068V755.766H101.499Z" fill="white"/>
<path d="M171.672 670.706C176.825 667.765 183.175 667.765 188.328 670.706L205.895 680.736C211.046 683.676 214.211 689.105 214.211 694.971V715.029C214.211 720.895 211.046 726.324 205.895 729.264L188.328 739.294C183.175 742.235 176.825 742.235 171.672 739.294L154.105 729.264C148.954 726.324 145.789 720.895 145.789 715.029V694.971C145.789 689.105 148.954 683.676 154.105 680.736L171.672 670.706Z" fill="#21A300" stroke="#30F000" stroke-width="3"/>
<path d="M173.896 704.237H170.233C167.54 704.237 165.349 702.047 165.349 699.353V695.691C165.349 692.998 167.54 690.807 170.233 690.807H173.896C176.589 690.807 178.779 692.998 178.779 695.691V699.353C178.779 702.047 176.589 704.237 173.896 704.237ZM170.233 694.47C169.56 694.47 169.012 695.018 169.012 695.691V699.353C169.012 700.026 169.56 700.574 170.233 700.574H173.896C174.568 700.574 175.116 700.026 175.116 699.353V695.691C175.116 695.018 174.568 694.47 173.896 694.47H170.233ZM189.767 704.237H186.104C183.411 704.237 181.221 702.047 181.221 699.353V695.691C181.221 692.998 183.411 690.807 186.104 690.807H189.767C192.46 690.807 194.651 692.998 194.651 695.691V699.353C194.651 702.047 192.46 704.237 189.767 704.237ZM186.104 694.47C185.431 694.47 184.884 695.018 184.884 695.691V699.353C184.884 700.026 185.431 700.574 186.104 700.574H189.767C190.441 700.574 190.988 700.026 190.988 699.353V695.691C190.988 695.018 190.441 694.47 189.767 694.47H186.104ZM173.896 720.108H170.233C167.54 720.108 165.349 717.918 165.349 715.225V711.562C165.349 708.869 167.54 706.679 170.233 706.679H173.896C176.589 706.679 178.779 708.869 178.779 711.562V715.225C178.779 717.918 176.589 720.108 173.896 720.108ZM170.233 710.341C169.56 710.341 169.012 710.89 169.012 711.562V715.225C169.012 715.898 169.56 716.446 170.233 716.446H173.896C174.568 716.446 175.116 715.898 175.116 715.225V711.562C175.116 710.89 174.568 710.341 173.896 710.341H170.233ZM186.104 709.731V708.51C186.104 707.499 185.284 706.679 184.273 706.679H183.052C182.041 706.679 181.221 707.499 181.221 708.51V709.731C181.221 710.742 182.041 711.562 183.052 711.562H184.273C185.284 711.562 186.104 710.742 186.104 709.731ZM189.767 713.394C189.767 712.383 188.947 711.562 187.936 711.562C186.925 711.562 186.104 712.383 186.104 713.394C186.104 714.404 186.925 715.225 187.936 715.225C188.947 715.225 189.767 714.404 189.767 713.394ZM186.104 718.277V717.056C186.104 716.045 185.284 715.225 184.273 715.225H183.052C182.041 715.225 181.221 716.045 181.221 717.056V718.277C181.221 719.288 182.041 720.108 183.052 720.108H184.273C185.284 720.108 186.104 719.288 186.104 718.277ZM194.651 709.731V708.51C194.651 707.499 193.83 706.679 192.819 706.679H191.598C190.588 706.679 189.767 707.499 189.767 708.51V709.731C189.767 710.742 190.588 711.562 191.598 711.562H192.819C193.83 711.562 194.651 710.742 194.651 709.731Z" fill="white"/>
<path d="M167.391 764.348V765.538H155.939V764.348H160.923V761.8H157.227V755.276H158.655V757.404H164.647V755.276H166.075V761.8H162.365V764.348H167.391ZM158.655 760.638H164.647V758.566H158.655V760.638ZM180.13 758.44V759.63H178.45V763.928H176.994V754.436H178.45V758.44H180.13ZM173.76 759.7C174.026 758.342 174.054 757.348 174.068 756.564H169.126V755.388H175.482V756.116C175.482 756.97 175.496 758.216 175.174 759.854L173.76 759.7ZM176.322 761.534C173.704 761.982 170.708 762.066 168.51 762.066L168.356 760.89C169.14 760.89 169.98 760.904 170.876 760.862V758.272H172.304V760.82C173.648 760.764 174.978 760.694 176.224 760.484L176.322 761.534ZM171.716 765.664H178.856V766.84H170.26V763.088H171.716V765.664ZM188.095 757.026H181.081V755.878H183.923V754.408H185.365V755.878H188.095V757.026ZM190.083 761.548H188.151V760.386H190.083V758.874H188.151V757.698H190.083V754.436H191.525V764.082H190.083V761.548ZM187.549 760.064C187.549 761.52 186.373 762.514 184.637 762.514C182.915 762.514 181.739 761.52 181.739 760.064C181.739 758.594 182.915 757.614 184.637 757.614C186.373 757.614 187.549 758.594 187.549 760.064ZM183.097 760.064C183.097 760.904 183.727 761.38 184.637 761.38C185.589 761.38 186.191 760.904 186.191 760.064C186.191 759.224 185.589 758.734 184.637 758.734C183.727 758.734 183.097 759.224 183.097 760.064ZM191.819 765.664V766.84H183.293V763.27H184.749V765.664H191.819ZM201.044 756.508H193.82V755.444H196.718V754.338H198.174V755.444H201.044V756.508ZM205.244 758.146V759.336H203.508V762.976H202.066V754.45H203.508V758.146H205.244ZM201.506 762.024C198.846 762.514 195.878 762.542 193.666 762.542L193.498 761.422C194.45 761.422 195.542 761.422 196.718 761.38V760.498C195.262 760.33 194.422 759.7 194.422 758.734C194.422 757.6 195.57 756.942 197.432 756.942C199.294 756.942 200.442 757.6 200.442 758.734C200.442 759.686 199.574 760.33 198.174 760.498V761.324C199.294 761.268 200.372 761.198 201.394 761.044L201.506 762.024ZM195.78 758.734C195.78 759.28 196.424 759.588 197.432 759.588C198.454 759.588 199.084 759.28 199.084 758.734C199.084 758.188 198.454 757.894 197.432 757.894C196.424 757.894 195.78 758.188 195.78 758.734ZM199.378 763.144C202.108 763.144 203.592 763.83 203.592 765.118C203.592 766.406 202.108 767.092 199.378 767.092C196.634 767.092 195.15 766.406 195.15 765.118C195.15 763.83 196.634 763.144 199.378 763.144ZM199.378 766.028C201.212 766.028 202.136 765.72 202.136 765.118C202.136 764.502 201.212 764.194 199.378 764.194C197.53 764.194 196.606 764.502 196.606 765.118C196.606 765.72 197.53 766.028 199.378 766.028Z" fill="#30F000"/>
<path d="M73.0013 717C70.5957 717 68.3326 717.972 66.6322 719.737C64.9342 721.498 64 723.84 64 726.33C64 731.345 68.5185 735.468 70.947 737.686C71.2804 737.991 71.5655 738.248 71.7921 738.47C72.1205 738.788 72.5507 738.964 73.0013 738.964C73.4518 738.964 73.8821 738.788 74.2104 738.47C74.4319 738.253 74.7119 737.999 75.0327 737.706L75.053 737.686C77.4815 735.471 82 731.345 82 726.33C82 723.84 81.0658 721.498 79.3678 719.737C77.6699 717.972 75.4069 717 73.0013 717ZM73.8973 736.347C73.5868 736.629 73.3195 736.874 73.0904 737.095L73.0013 737.179L72.9122 737.095C72.6831 736.874 72.4158 736.632 72.1103 736.354C69.8804 734.318 65.7412 730.543 65.7412 726.33C65.7412 722.117 68.9996 718.79 73.0013 718.79C77.003 718.79 80.2588 722.173 80.2588 726.33C80.2588 730.543 76.1196 734.318 73.8973 736.349V736.347Z" fill="white"/>
<path d="M73.0013 721.727C70.7306 721.727 68.885 723.639 68.885 725.989C68.885 728.338 70.7306 730.25 73.0013 730.25C75.2719 730.25 77.1175 728.338 77.1175 725.989C77.1175 723.639 75.2719 721.727 73.0013 721.727ZM73.0013 728.458C71.6928 728.458 70.6288 727.348 70.6288 725.986C70.6288 724.624 71.6928 723.514 73.0013 723.514C74.3097 723.514 75.3738 724.624 75.3738 725.986C75.3738 727.348 74.3097 728.458 73.0013 728.458Z" fill="white"/>
<path d="M269.921 760.568H267.947V767.092H266.505V754.436H267.947V759.378H269.921V760.568ZM258.595 755.668H264.517V763.928H258.595V755.668ZM260.023 762.78H263.089V756.816H260.023V762.78ZM281.12 754.422V767.106H279.664V754.422H281.12ZM274.386 755.36C276.276 755.36 277.648 757.096 277.648 759.812C277.648 762.556 276.276 764.278 274.386 764.278C272.524 764.278 271.138 762.556 271.138 759.812C271.138 757.096 272.524 755.36 274.386 755.36ZM274.386 756.662C273.266 756.662 272.524 757.838 272.524 759.812C272.524 761.842 273.266 762.99 274.386 762.99C275.506 762.99 276.262 761.842 276.262 759.812C276.262 757.838 275.506 756.662 274.386 756.662ZM294.153 754.436V767.078H292.767V754.436H294.153ZM290.289 754.716H291.647V766.448H290.289V760.428H288.791V759.154H290.289V754.716ZM288.203 762.71C288.609 762.668 289.001 762.626 289.379 762.57L289.477 763.62C287.489 763.998 284.913 764.068 283.303 764.068L283.135 762.878H284.297V757.124H283.387V755.962H289.141V757.124H288.203V762.71ZM285.613 762.85C286.047 762.836 286.453 762.836 286.887 762.794V757.124H285.613V762.85ZM306.233 754.422V767.106H304.777V754.422H306.233ZM299.499 755.36C301.389 755.36 302.761 757.096 302.761 759.812C302.761 762.556 301.389 764.278 299.499 764.278C297.637 764.278 296.251 762.556 296.251 759.812C296.251 757.096 297.637 755.36 299.499 755.36ZM299.499 756.662C298.379 756.662 297.637 757.838 297.637 759.812C297.637 761.842 298.379 762.99 299.499 762.99C300.619 762.99 301.375 761.842 301.375 759.812C301.375 757.838 300.619 756.662 299.499 756.662ZM318.79 754.436V767.078H317.334V754.436H318.79ZM313.05 758.09C313.05 760.204 314.352 762.36 316.326 763.214L315.528 764.348C314.058 763.69 312.938 762.332 312.336 760.694C311.776 762.444 310.642 763.97 309.158 764.67L308.332 763.522C310.292 762.64 311.594 760.232 311.594 758.09V756.886H308.78V755.696H315.864V756.886H313.05V758.09Z" fill="white"/>
<path d="M289 727.999C291.757 727.999 294 725.757 294 723C294 720.242 291.757 718 289 718C286.243 718 284 720.242 284 723C284 725.757 286.243 727.999 289 727.999ZM289 719.732C290.797 719.732 292.267 721.198 292.267 723C292.267 724.802 290.802 726.263 289 726.263C287.198 726.263 285.733 724.797 285.733 722.995C285.733 721.193 287.2 719.732 289 719.732Z" fill="white"/>
<path d="M293.749 729.484H284.253C281.909 729.484 280 731.393 280 733.737V736.91C280 737.399 280.397 737.795 280.886 737.795H297.114C297.603 737.795 298 737.399 298 736.91V733.737C298 731.393 296.091 729.484 293.747 729.484H293.749ZM296.245 736.024H281.755V733.737C281.755 732.371 282.885 731.258 284.251 731.258H293.747C295.113 731.258 296.242 732.371 296.242 733.737V736.024H296.245Z" fill="white"/>
<path d="M154.75 244.774C170.375 235.753 189.625 235.753 205.25 244.774L258.503 275.52C274.128 284.541 283.753 301.212 283.753 319.254V380.746C283.753 398.788 274.128 415.459 258.503 424.48L205.25 455.226C189.625 464.247 170.375 464.247 154.75 455.226L101.497 424.48C85.8721 415.459 76.2468 398.788 76.2468 380.746V319.254C76.2468 301.212 85.8721 284.541 101.497 275.52L154.75 244.774Z" stroke="#A7FF91" stroke-width="9"/>
<g clip-path="url(#clip1_27_1646)">
<path d="M150.358 311.607H140.635V321.33H150.358V311.607Z" fill="#A7FF91"/>
<path d="M198.974 301.884V306.746H194.113V311.607H198.974V331.054H203.836V335.915H198.974V340.777H208.698V331.054H223.282V335.915H228.144V301.884H198.974ZM223.282 326.192H203.836V306.746H223.282V326.192Z" fill="#A7FF91"/>
<path d="M218.421 311.607H208.698V321.33H218.421V311.607Z" fill="#A7FF91"/>
<path d="M150.358 379.67H140.635V389.393H150.358V379.67Z" fill="#A7FF91"/>
<path d="M203.836 369.946H198.974V374.808H203.836V369.946Z" fill="#A7FF91"/>
<path d="M179.528 394.254H174.666V399.116H179.528V394.254Z" fill="#A7FF91"/>
<path d="M184.39 374.808H179.528V379.67H184.39V374.808Z" fill="#A7FF91"/>
<path d="M184.39 384.531H179.528V389.393H184.39V384.531Z" fill="#A7FF91"/>
<path d="M228.144 360.223H223.282V365.085H228.144V360.223Z" fill="#A7FF91"/>
<path d="M135.774 360.223H130.912V365.085H135.774V360.223Z" fill="#A7FF91"/>
<path d="M135.774 335.915H130.912V340.777H135.774V335.915Z" fill="#A7FF91"/>
<path d="M184.39 306.746V311.607H174.666V316.469H189.251V306.746H184.39Z" fill="#A7FF91"/>
<path d="M223.282 340.777V345.638H213.559V350.5H198.974V345.638H194.113V350.5H184.39V355.362H198.974V360.223H184.39V355.362H179.528V360.223H174.666V355.362H169.805V360.223H164.943V365.085H174.666V369.946H179.528V365.085H189.251V369.946H184.39L184.39 374.808H189.251V384.531H194.113V389.393H198.974V384.531H213.559V374.808H218.421V369.946H213.559V360.223H203.836V355.362H213.559V360.223H218.421V355.362H223.282V350.5H228.144V340.777H223.282ZM208.698 365.085V379.67H194.113V365.085H208.698Z" fill="#A7FF91"/>
<path d="M189.251 331.054V335.915H184.39V345.638H189.251V340.777H194.113V335.915H198.974V331.054H189.251Z" fill="#A7FF91"/>
<path d="M194.113 394.254H184.39V399.116H194.113V394.254Z" fill="#A7FF91"/>
<path d="M174.666 306.746H169.805V311.607H174.666L174.666 306.746Z" fill="#A7FF91"/>
<path d="M213.559 340.777L208.698 340.777L208.698 345.638H213.559V340.777Z" fill="#A7FF91"/>
<path d="M218.421 335.915H213.559V340.777L218.421 340.777V335.915Z" fill="#A7FF91"/>
<path d="M155.22 360.223H150.358V365.085H155.22V360.223Z" fill="#A7FF91"/>
<path d="M160.082 394.254V374.808H164.943L164.943 365.085H160.082V369.946H145.497V365.085H135.774V369.946H130.912V399.116H169.805V394.254H160.082ZM155.22 394.254H135.774V374.808H155.22V394.254Z" fill="#A7FF91"/>
<path d="M164.943 331.054H160.082V335.915H164.943V331.054Z" fill="#A7FF91"/>
<path d="M130.912 301.884V331.054H135.774V335.915L140.635 335.915V331.054H145.497V335.915H150.358V331.054H160.082L160.082 321.33H164.943V316.469H160.082V306.746L169.805 306.746L169.805 301.884H130.912ZM155.22 326.192H135.774V306.746H155.22V326.192Z" fill="#A7FF91"/>
<path d="M194.113 316.469L189.251 316.469L189.251 321.33H194.113V316.469Z" fill="#A7FF91"/>
<path d="M184.39 301.884H179.528V306.746L184.39 306.746L184.39 301.884Z" fill="#A7FF91"/>
<path d="M189.251 331.054L189.251 326.192H184.39V321.33H179.528V326.192H169.805V321.33L164.943 321.33L164.943 331.054H169.805V340.777H155.22V335.915L150.358 335.915V340.777L135.774 340.777V345.638H145.497V350.5H130.912V355.362H145.497V360.223H150.358L150.358 355.362H155.22L155.22 360.223H160.082V355.362L169.805 355.362V350.5H164.943V345.638H174.666V350.5L184.39 350.5L184.39 345.638H179.528V340.777H174.666V331.054H189.251ZM160.082 350.5H150.358V345.638H160.082V350.5Z" fill="#A7FF91"/>
<path d="M174.666 379.67V369.946L169.805 369.946V374.808L164.943 374.808L164.943 379.67H169.805V384.531H164.943V389.393H174.666V384.531L179.528 384.531V379.67H174.666Z" fill="#A7FF91"/>
<path d="M218.421 389.393V384.531H213.559L213.559 389.393H198.974V394.254H208.698V399.116H213.559V394.254H223.282V399.116H228.144V389.393H218.421Z" fill="#A7FF91"/>
<path d="M223.282 369.946V374.808L218.421 374.808V379.67H228.144V369.946H223.282Z" fill="#A7FF91"/>
</g>
<rect x="122.888" y="293.388" width="114.224" height="114.224" rx="9.44" stroke="#A7FF91" stroke-width="3.776"/>
</g>
<defs>
<filter id="filter0_d_27_1646" x="101" y="568" width="158" height="92" filterUnits="userSpaceOnUse" color-interpolation-filters="sRGB">
<feFlood flood-opacity="0" result="BackgroundImageFix"/>
<feColorMatrix in="SourceAlpha" type="matrix" values="0 0 0 0 0 0 0 0 0 0 0 0 0 0 0 0 0 0 127 0" result="hardAlpha"/>
<feOffset dy="2"/>
<feGaussianBlur stdDeviation="10"/>
<feComposite in2="hardAlpha" operator="out"/>
<feColorMatrix type="matrix" values="0 0 0 0 0 0 0 0 0 0 0 0 0 0 0 0 0 0 0.1 0"/>
<feBlend mode="normal" in2="BackgroundImageFix" result="effect1_dropShadow_27_1646"/>
<feBlend mode="normal" in="SourceGraphic" in2="effect1_dropShadow_27_1646" result="shape"/>
</filter>
<clipPath id="clip0_27_1646">
<rect width="360" height="800" fill="white"/>
</clipPath>
<clipPath id="clip1_27_1646">
<rect x="130.912" y="301.884" width="97.232" height="97.232" rx="1.888" fill="white"/>
</clipPath>
</defs>
</svg>
